<svg width="49" height="40" viewBox="0 0 49 40" fill="none" xmlns="http://www.w3.org/2000/svg">
<path d="M36.2875 0H12.0958C5.42612 0 0 5.42585 0 12.0958V34.0928C0 36.1254 1.14262 37.9246 2.98506 38.7865C3.69787 39.1213 4.45165 39.2833 5.19687 39.2833C6.38052 39.2833 7.54476 38.8707 8.50164 38.0737L11.6962 35.4104C12.3572 34.8618 13.1931 34.5572 14.0506 34.5572L36.2876 34.5594C42.9573 34.5594 48.3834 29.1335 48.3834 22.4636V12.0957C48.3834 5.42598 42.9575 0 36.2875 0ZM44.9274 22.4637C44.9274 27.2264 41.0503 31.1036 36.2875 31.1036H14.0527C12.3874 31.1036 10.7674 31.6889 9.48656 32.756L6.28983 35.4192C5.50359 36.0715 4.68284 35.767 4.44955 35.6568C4.21627 35.5466 3.45595 35.1103 3.45595 34.093V12.096C3.45595 7.33325 7.33309 3.45611 12.0958 3.45611H36.2875C41.0503 3.45611 44.9274 7.33325 44.9274 12.096V22.4637Z" fill="black"/>
<path d="M23.2796 16.1025H23.2623C22.3076 16.1025 21.543 16.8758 21.543 17.8305C21.543 18.7852 22.3249 19.5585 23.2796 19.5585C24.2343 19.5585 25.0075 18.7852 25.0075 17.8305C25.0075 16.8779 24.2343 16.1025 23.2796 16.1025Z" fill="black"/>
<path d="M14.6448 16.1025H14.6276C13.6728 16.1025 12.9082 16.8758 12.9082 17.8305C12.9082 18.7852 13.6901 19.5585 14.6448 19.5585C15.5995 19.5585 16.3728 18.7852 16.3728 17.8305C16.3728 16.8779 15.5996 16.1025 14.6448 16.1025Z" fill="black"/>
<path d="M31.9202 16.1025H31.9029C30.9482 16.1025 30.1836 16.8758 30.1836 17.8305C30.1836 18.7852 30.9655 19.5585 31.9202 19.5585C32.8749 19.5585 33.6482 18.7852 33.6482 17.8305C33.6482 16.8779 32.875 16.1025 31.9202 16.1025Z" fill="black"/>
</svg>
