<svg width="51" height="47" viewBox="0 0 51 47" fill="none" xmlns="http://www.w3.org/2000/svg">
<path d="M5.42092 39.7731H45.1743C46.612 39.7731 47.9908 39.202 49.0075 38.1854C50.0241 37.1687 50.5952 35.7899 50.5952 34.3522C50.5876 28.2933 48.4057 22.4384 44.4462 17.8523C40.4868 13.2661 35.0129 10.2533 29.02 9.36177C29.809 8.61652 30.3561 7.65159 30.5905 6.5919C30.825 5.5322 30.7359 4.42653 30.3349 3.41801C29.9339 2.40949 29.2394 1.54455 28.3413 0.935165C27.4433 0.325778 26.3829 0 25.2976 0C24.2123 0 23.152 0.325778 22.2539 0.935165C21.3558 1.54455 20.6613 2.40949 20.2603 3.41801C19.8593 4.42653 19.7702 5.5322 20.0047 6.5919C20.2391 7.65159 20.7862 8.61652 21.5752 9.36177C15.5823 10.2533 10.1084 13.2661 6.14897 17.8523C2.18955 22.4384 0.00762343 28.2933 0 34.3522C0 35.7899 0.571131 37.1687 1.58775 38.1854C2.60437 39.202 3.9832 39.7731 5.42092 39.7731ZM25.2976 3.63367C25.655 3.63367 26.0044 3.73965 26.3015 3.9382C26.5987 4.13675 26.8303 4.41896 26.967 4.74914C27.1038 5.07933 27.1396 5.44265 27.0699 5.79317C27.0001 6.14368 26.828 6.46565 26.5753 6.71836C26.3226 6.97107 26.0006 7.14317 25.6501 7.21289C25.2996 7.28262 24.9363 7.24683 24.6061 7.11007C24.2759 6.9733 23.9937 6.7417 23.7952 6.44454C23.5966 6.14739 23.4906 5.79803 23.4906 5.44064C23.4906 4.9614 23.681 4.50179 24.0199 4.16292C24.3588 3.82405 24.8184 3.63367 25.2976 3.63367ZM25.2976 12.6685C31.0485 12.6685 36.5638 14.9531 40.6303 19.0195C44.6967 23.086 46.9813 28.6013 46.9813 34.3522C46.9813 34.8314 46.7909 35.291 46.452 35.6299C46.1131 35.9688 45.6535 36.1592 45.1743 36.1592H5.42092C4.94168 36.1592 4.48207 35.9688 4.14319 35.6299C3.80432 35.291 3.61394 34.8314 3.61394 34.3522C3.61394 28.6013 5.89847 23.086 9.96494 19.0195C14.0314 14.9531 19.5467 12.6685 25.2976 12.6685Z" fill="black"/>
<path d="M48.7882 43.3862H1.80697C1.32773 43.3862 0.868123 43.5766 0.52925 43.9155C0.190377 44.2544 0 44.714 0 45.1932C0 45.6724 0.190377 46.1321 0.52925 46.4709C0.868123 46.8098 1.32773 47.0002 1.80697 47.0002H48.7882C49.2675 47.0002 49.7271 46.8098 50.066 46.4709C50.4048 46.1321 50.5952 45.6724 50.5952 45.1932C50.5952 44.714 50.4048 44.2544 50.066 43.9155C49.7271 43.5766 49.2675 43.3862 48.7882 43.3862Z" fill="black"/>
</svg>
